<svg width="17" height="17" fill="none" xmlns="http://www.w3.org/2000/svg"><path fill-rule="evenodd" clip-rule="evenodd" d="M6.234 3.333a1.767 1.767 0 1 0 0 3.534 1.767 1.767 0 0 0 0-3.534ZM3.4 5.6a.502.502 0 0 0 .11-.012 2.767 2.767 0 0 0 5.447 0 .502.502 0 0 0 .11.012H15.3a.5.5 0 0 0 0-1H9.067a.502.502 0 0 0-.11.012 2.767 2.767 0 0 0-5.447 0A.502.502 0 0 0 3.4 4.6H1.7a.5.5 0 1 0 0 1h1.7Zm10.09 6.788a2.767 2.767 0 0 1-5.447 0 .5.5 0 0 1-.11.012H1.7a.5.5 0 1 1 0-1h6.234a.5.5 0 0 1 .11.012 2.768 2.768 0 0 1 5.447 0 .502.502 0 0 1 .11-.012h1.7a.5.5 0 0 1 0 1h-1.7a.502.502 0 0 1-.11-.012ZM9 11.9a1.767 1.767 0 1 1 3.533 0A1.767 1.767 0 0 1 9 11.9Z" fill="#202124"/></svg>